{
  "accessors": [
    {
      "bufferView": 1,
      "componentType": 5126,
      "count": 6000,
      "max": [
        78.907798767089844,
        18.973800659179688,
        111.45179748535156
      ],
      "min": [
        -75.93890380859375,
        -20.575300216674805,
        -0.19480000436306
      ],
      "type": "VEC3"
    },
    {
      "bufferView": 1,
      "byteOffset": 72000,
      "componentType": 5126,
      "count": 6000,
      "max": [
        0.99989771842956543,
        0.99997317790985107,
        0.99857264757156372
      ],
      "min": [
        -0.99910920858383179,
        -0.99909228086471558,
        -1
      ],
      "type": "VEC3"
    },
    {
      "bufferView": 0,
      "componentType": 5125,
      "count": 12708,
      "max": [
        5999
      ],
      "min": [
        0
      ],
      "type": "SCALAR"
    },
    {
      "bufferView": 1,
      "byteOffset": 144000,
      "componentType": 5126,
      "count": 9408,
      "max": [
        77.916702270507812,
        18.973800659179688,
        111.1990966796875
      ],
      "min": [
        -75.1177978515625,
        -20.575300216674805,
        -0.19480000436306
      ],
      "type": "VEC3"
    },
    {
      "bufferView": 1,
      "byteOffset": 256896,
      "componentType": 5126,
      "count": 9408,
      "max": [
        0.99989771842956543,
        0.99997556209564209,
        0.99333542585372925
      ],
      "min": [
        -0.99988126754760742,
        -0.99909645318984985,
        -0.998390793800354
      ],
      "type": "VEC3"
    },
    {
      "bufferView": 0,
      "byteOffset": 50832,
      "componentType": 5125,
      "count": 14112,
      "max": [
        9407
      ],
      "min": [
        0
      ],
      "type": "SCALAR"
    },
    {
      "bufferView": 1,
      "byteOffset": 369792,
      "componentType": 5126,
      "count": 9700,
      "max": [
        77.995697021484375,
        18.973800659179688,
        111.1990966796875
      ],
      "min": [
        -75.621597290039062,
        -20.575300216674805,
        -0.19480000436306
      ],
      "type": "VEC3"
    },
    {
      "bufferView": 1,
      "byteOffset": 486192,
      "componentType": 5126,
      "count": 9700,
      "max": [
        0.99989771842956543,
        0.99997556209564209,
        0.99857264757156372
      ],
      "min": [
        -0.99988126754760742,
        -0.99909645318984985,
        -0.998390793800354
      ],
      "type": "VEC3"
    },
    {
      "bufferView": 0,
      "byteOffset": 107280,
      "componentType": 5125,
      "count": 14550,
      "max": [
        9699
      ],
      "min": [
        0
      ],
      "type": "SCALAR"
    },
    {
      "bufferView": 1,
      "byteOffset": 602592,
      "componentType": 5126,
      "count": 9996,
      "max": [
        78.590103149414062,
        18.973800659179688,
        111.44129943847656
      ],
      "min": [
        -75.703903198242188,
        -20.575300216674805,
        -0.19480000436306
      ],
      "type": "VEC3"
    },
    {
      "bufferView": 1,
      "byteOffset": 722544,
      "componentType": 5126,
      "count": 9996,
      "max": [
        0.99989771842956543,
        0.99997556209564209,
        0.99857264757156372
      ],
      "min": [
        -0.99988126754760742,
        -0.99909645318984985,
        -0.998390793800354
      ],
      "type": "VEC3"
    },
    {
      "bufferView": 0,
      "byteOffset": 165480,
      "componentType": 5125,
      "count": 14994,
      "max": [
        9995
      ],
      "min": [
        0
      ],
      "type": "SCALAR"
    },
    {
      "bufferView": 1,
      "byteOffset": 842496,
      "componentType": 5126,
      "count": 5032,
      "max": [
        78.672897338867188,
        17.945699691772461,
        111.44129943847656
      ],
      "min": [
        -75.1177978515625,
        -18.615699768066406,
        -0.19480000436306
      ],
      "type": "VEC3"
    },
    {
      "bufferView": 1,
      "byteOffset": 902880,
      "componentType": 5126,
      "count": 5032,
      "max": [
        0.99904084205627441,
        0.99997556209564209,
        0.99534434080123901
      ],
      "min": [
        -0.99988126754760742,
        -0.99909645318984985,
        -0.99643552303314209
      ],
      "type": "VEC3"
    },
    {
      "bufferView": 0,
      "byteOffset": 225456,
      "componentType": 5125,
      "count": 7548,
      "max": [
        5031
      ],
      "min": [
        0
      ],
      "type": "SCALAR"
    }
  ],
  "asset": {
    "extras": {
      "author": "inventa3d (https://sketchfab.com/inventa3d)",
      "license": "CC-BY-4.0 (http://creativecommons.org/licenses/by/4.0/)",
      "source": "https://sketchfab.com/3d-models/arco-enredado-7b52f78cdeb64f18ba8cc3529a1bba26",
      "title": "Arco Enredado"
    },
    "generator": "Sketchfab-6.22.0",
    "version": "2.0"
  },
  "bufferViews": [
    {
      "buffer": 0,
      "byteLength": 255648,
      "byteOffset": 0,
      "name": "floatBufferViews",
      "target": 34963
    },
    {
      "buffer": 0,
      "byteLength": 963264,
      "byteOffset": 255648,
      "byteStride": 12,
      "name": "floatBufferViews",
      "target": 34962
    }
  ],
  "buffers": [
    {
      "byteLength": 1218912,
      "uri": "scene.bin"
    }
  ],
  "materials": [
    {
      "doubleSided": true,
      "emissiveFactor": [
        0,
        0,
        0
      ],
      "name": "wire_233233233",
      "pbrMetallicRoughness": {
        "baseColorFactor": [
          0.91369999999999996,
          0.91369999999999996,
          0.91369999999999996,
          1
        ],
        "metallicFactor": 0,
        "roughnessFactor": 0.59999999999999998
      }
    }
  ],
  "meshes": [
    {
      "primitives": [
        {
          "attributes": {
            "NORMAL": 1,
            "POSITION": 0
          },
          "indices": 2,
          "material": 0,
          "mode": 4
        }
      ]
    },
    {
      "primitives": [
        {
          "attributes": {
            "NORMAL": 4,
            "POSITION": 3
          },
          "indices": 5,
          "material": 0,
          "mode": 4
        }
      ]
    },
    {
      "primitives": [
        {
          "attributes": {
            "NORMAL": 7,
            "POSITION": 6
          },
          "indices": 8,
          "material": 0,
          "mode": 4
        }
      ]
    },
    {
      "primitives": [
        {
          "attributes": {
            "NORMAL": 10,
            "POSITION": 9
          },
          "indices": 11,
          "material": 0,
          "mode": 4
        }
      ]
    },
    {
      "primitives": [
        {
          "attributes": {
            "NORMAL": 13,
            "POSITION": 12
          },
          "indices": 14,
          "material": 0,
          "mode": 4
        }
      ]
    }
  ],
  "nodes": [
    {
      "children": [
        1
      ],
      "name": "RootNode (gltf orientation matrix)",
      "rotation": [
        -0.70710678118654746,
        -0,
        -0,
        0.70710678118654757
      ]
    },
    {
      "children": [
        2
      ],
      "name": "RootNode (model correction matrix)"
    },
    {
      "children": [
        3,
        4,
        5,
        6,
        7
      ],
      "name": "Arco Enredado.obj.cleaner"
    },
    {
      "mesh": 0,
      "name": ""
    },
    {
      "mesh": 1,
      "name": ""
    },
    {
      "mesh": 2,
      "name": ""
    },
    {
      "mesh": 3,
      "name": ""
    },
    {
      "mesh": 4,
      "name": ""
    }
  ],
  "scene": 0,
  "scenes": [
    {
      "name": "OSG_Scene",
      "nodes": [
        0
      ]
    }
  ]
}

