{
  "accessors": [
    {
      "bufferView": 2,
      "componentType": 5126,
      "count": 4887,
      "max": [
        14.032608032226562,
        10.150310516357422,
        15.239029884338379
      ],
      "min": [
        -1.1633834838867188,
        3.0928208827972412,
        -4.4938168525695801
      ],
      "type": "VEC3"
    },
    {
      "bufferView": 2,
      "byteOffset": 58644,
      "componentType": 5126,
      "count": 4887,
      "max": [
        0.99988532066345215,
        0.97918230295181274,
        0.99958467483520508
      ],
      "min": [
        -0.9996953010559082,
        -0.99985343217849731,
        -0.99993205070495605
      ],
      "type": "VEC3"
    },
    {
      "bufferView": 3,
      "componentType": 5126,
      "count": 4887,
      "max": [
        0.99676370620727539,
        0.99918907880783081,
        0.99870657920837402,
        1
      ],
      "min": [
        -0.99990105628967285,
        -0.99884498119354248,
        -0.99966758489608765,
        1
      ],
      "type": "VEC4"
    },
    {
      "bufferView": 1,
      "componentType": 5126,
      "count": 4887,
      "max": [
        0.99893850088119507,
        1.0004382133483887
      ],
      "min": [
        0.0019882053602486849,
        1.0602604561427142e-05
      ],
      "type": "VEC2"
    },
    {
      "bufferView": 1,
      "byteOffset": 39096,
      "componentType": 5126,
      "count": 4887,
      "max": [
        0.99893850088119507,
        1.0004382133483887
      ],
      "min": [
        0.0019882053602486849,
        1.0602604561427142e-05
      ],
      "type": "VEC2"
    },
    {
      "bufferView": 1,
      "byteOffset": 78192,
      "componentType": 5126,
      "count": 4887,
      "max": [
        0.99893850088119507,
        1.0004382133483887
      ],
      "min": [
        0.0019882053602486849,
        1.0602604561427142e-05
      ],
      "type": "VEC2"
    },
    {
      "bufferView": 1,
      "byteOffset": 117288,
      "componentType": 5126,
      "count": 4887,
      "max": [
        0.99893850088119507,
        1.0004382133483887
      ],
      "min": [
        0.0019882053602486849,
        1.0602604561427142e-05
      ],
      "type": "VEC2"
    },
    {
      "bufferView": 0,
      "componentType": 5125,
      "count": 21471,
      "max": [
        4886
      ],
      "min": [
        0
      ],
      "type": "SCALAR"
    },
    {
      "bufferView": 2,
      "byteOffset": 117288,
      "componentType": 5126,
      "count": 26016,
      "max": [
        17.848676681518555,
        35.360595703125,
        48.043880462646484
      ],
      "min": [
        -28.222143173217773,
        -10.808793067932129,
        -29.17591667175293
      ],
      "type": "VEC3"
    },
    {
      "bufferView": 2,
      "byteOffset": 429480,
      "componentType": 5126,
      "count": 26016,
      "max": [
        0.99997788667678833,
        0.99988281726837158,
        1
      ],
      "min": [
        -0.99949073791503906,
        -0.99989873170852661,
        -0.99959343671798706
      ],
      "type": "VEC3"
    },
    {
      "bufferView": 3,
      "byteOffset": 78192,
      "componentType": 5126,
      "count": 26016,
      "max": [
        1,
        1,
        0.99998509883880615,
        1
      ],
      "min": [
        -1,
        -1,
        -0.99998509883880615,
        1
      ],
      "type": "VEC4"
    },
    {
      "bufferView": 1,
      "byteOffset": 156384,
      "componentType": 5126,
      "count": 26016,
      "max": [
        1,
        1
      ],
      "min": [
        0,
        0
      ],
      "type": "VEC2"
    },
    {
      "bufferView": 1,
      "byteOffset": 364512,
      "componentType": 5126,
      "count": 26016,
      "max": [
        1,
        1
      ],
      "min": [
        0,
        0
      ],
      "type": "VEC2"
    },
    {
      "bufferView": 1,
      "byteOffset": 572640,
      "componentType": 5126,
      "count": 26016,
      "max": [
        1,
        1
      ],
      "min": [
        0,
        0
      ],
      "type": "VEC2"
    },
    {
      "bufferView": 1,
      "byteOffset": 780768,
      "componentType": 5126,
      "count": 26016,
      "max": [
        1,
        1
      ],
      "min": [
        0,
        0
      ],
      "type": "VEC2"
    },
    {
      "bufferView": 0,
      "byteOffset": 85884,
      "componentType": 5125,
      "count": 26016,
      "max": [
        26015
      ],
      "min": [
        0
      ],
      "type": "SCALAR"
    }
  ],
  "asset": {
    "extras": {
      "author": "shalivan (https://sketchfab.com/shalivan)",
      "license": "CC-BY-4.0 (http://creativecommons.org/licenses/by/4.0/)",
      "source": "https://sketchfab.com/3d-models/cactus-1-564bfb6467344377a891ec45e88cf4c2",
      "title": "Cactus 1"
    },
    "generator": "Sketchfab-5.22.0",
    "version": "2.0"
  },
  "bufferViews": [
    {
      "buffer": 0,
      "byteLength": 189948,
      "byteOffset": 0,
      "name": "floatBufferViews",
      "target": 34963
    },
    {
      "buffer": 0,
      "byteLength": 988896,
      "byteOffset": 189948,
      "byteStride": 8,
      "name": "floatBufferViews",
      "target": 34962
    },
    {
      "buffer": 0,
      "byteLength": 741672,
      "byteOffset": 1178844,
      "byteStride": 12,
      "name": "floatBufferViews",
      "target": 34962
    },
    {
      "buffer": 0,
      "byteLength": 494448,
      "byteOffset": 1920516,
      "byteStride": 16,
      "name": "floatBufferViews",
      "target": 34962
    }
  ],
  "buffers": [
    {
      "byteLength": 2414964,
      "uri": "scene.bin"
    }
  ],
  "images": [
    {
      "uri": "textures/kaktus_tex_normal.png"
    },
    {
      "uri": "textures/kaktus_tex_baseColor.jpeg"
    }
  ],
  "materials": [
    {
      "doubleSided": true,
      "emissiveFactor": [
        0,
        0,
        0
      ],
      "name": "kaktus_tex",
      "normalTexture": {
        "index": 0,
        "scale": 1,
        "texCoord": 0
      },
      "pbrMetallicRoughness": {
        "baseColorFactor": [
          1,
          1,
          1,
          1
        ],
        "baseColorTexture": {
          "index": 1,
          "texCoord": 0
        },
        "metallicFactor": 0,
        "roughnessFactor": 0.59999999999999998
      }
    },
    {
      "doubleSided": true,
      "emissiveFactor": [
        0,
        0,
        0
      ],
      "name": "15_-_Default",
      "pbrMetallicRoughness": {
        "baseColorFactor": [
          0.39215699999999998,
          0.26666699999999999,
          0.121569,
          1
        ],
        "metallicFactor": 0,
        "roughnessFactor": 0.59999999999999998
      }
    }
  ],
  "meshes": [
    {
      "primitives": [
        {
          "attributes": {
            "NORMAL": 1,
            "POSITION": 0,
            "TANGENT": 2,
            "TEXCOORD_0": 3,
            "TEXCOORD_1": 4,
            "TEXCOORD_2": 5,
            "TEXCOORD_3": 6
          },
          "indices": 7,
          "material": 0,
          "mode": 4
        }
      ]
    },
    {
      "primitives": [
        {
          "attributes": {
            "NORMAL": 9,
            "POSITION": 8,
            "TANGENT": 10,
            "TEXCOORD_0": 11,
            "TEXCOORD_1": 12,
            "TEXCOORD_2": 13,
            "TEXCOORD_3": 14
          },
          "indices": 15,
          "material": 1,
          "mode": 4
        }
      ]
    }
  ],
  "nodes": [
    {
      "children": [
        1
      ],
      "name": "RootNode (gltf orientation matrix)",
      "rotation": [
        -0.70710678118654746,
        -0,
        -0,
        0.70710678118654757
      ]
    },
    {
      "children": [
        2
      ],
      "name": "RootNode (model correction matrix)"
    },
    {
      "children": [
        3
      ],
      "matrix": [
        1,
        0,
        0,
        0,
        0,
        0,
        1,
        0,
        0,
        -1,
        0,
        0,
        0,
        0,
        0,
        1
      ],
      "name": "43c2e53d68b5404191e1ed07cdfeea67.fbx"
    },
    {
      "children": [
        4,
        6
      ],
      "name": "RootNode"
    },
    {
      "children": [
        5
      ],
      "matrix": [
        0.98972434025131384,
        0.12981668143474506,
        -0.059944637252814945,
        0,
        0.1229773471379793,
        -0.98669368427443427,
        -0.10635857042969156,
        0,
        -0.072954107290396739,
        0.097893827649172538,
        -0.9925192076369953,
        0,
        -7.1420001983642578,
        6.7160000801086426,
        7.0539999008178711,
        1
      ],
      "name": "lo_bake"
    },
    {
      "mesh": 0,
      "name": ""
    },
    {
      "children": [
        7
      ],
      "matrix": [
        0.17021807309190443,
        0.14898317237067382,
        0.05542049062966567,
        0,
        0.15890516153041614,
        -0.15740592873091969,
        -0.06491634676822676,
        0,
        -0.0040701429822064972,
        0.085258395472976867,
        -0.21669339619179601,
        0,
        -0.71347051858901978,
        3.3903965950012207,
        3.1988339424133301,
        1
      ],
      "name": "kolce_1"
    },
    {
      "mesh": 1,
      "name": ""
    }
  ],
  "samplers": [
    {
      "magFilter": 9729,
      "minFilter": 9987,
      "wrapS": 33071,
      "wrapT": 33071
    },
    {
      "magFilter": 9729,
      "minFilter": 9987,
      "wrapS": 10497,
      "wrapT": 10497
    }
  ],
  "scene": 0,
  "scenes": [
    {
      "name": "OSG_Scene",
      "nodes": [
        0
      ]
    }
  ],
  "textures": [
    {
      "sampler": 0,
      "source": 0
    },
    {
      "sampler": 1,
      "source": 1
    }
  ]
}

