{
  "accessors": [
    {
      "bufferView": 1,
      "componentType": 5126,
      "count": 208,
      "max": [
        4.7709236145019531,
        1.9900527000427246,
        1.8686017990112305
      ],
      "min": [
        -7.0063166618347168,
        -2.1139247417449951,
        -2.8887660503387451
      ],
      "type": "VEC3"
    },
    {
      "bufferView": 1,
      "byteOffset": 2496,
      "componentType": 5126,
      "count": 208,
      "max": [
        0.92271047830581665,
        0.99990564584732056,
        0.97671401500701904
      ],
      "min": [
        -0.8968626856803894,
        -0.99999439716339111,
        -0.97312623262405396
      ],
      "type": "VEC3"
    },
    {
      "bufferView": 2,
      "componentType": 5126,
      "count": 208,
      "max": [
        0.99985915422439575,
        0.24327585101127625,
        0.99791431427001953,
        1
      ],
      "min": [
        -0.99515998363494873,
        -0.49374228715896606,
        -0.97944170236587524,
        -1
      ],
      "type": "VEC4"
    },
    {
      "bufferView": 0,
      "componentType": 5125,
      "count": 564,
      "max": [
        207
      ],
      "min": [
        0
      ],
      "type": "SCALAR"
    }
  ],
  "asset": {
    "extras": {
      "author": "muratmert17 (https://sketchfab.com/muratmert17)",
      "license": "CC-BY-4.0 (http://creativecommons.org/licenses/by/4.0/)",
      "source": "https://sketchfab.com/models/de751129f300464084628a6ea0d623d7",
      "title": "Low poly game Cactus"
    },
    "generator": "Sketchfab-3.18.6",
    "version": "2.0"
  },
  "bufferViews": [
    {
      "buffer": 0,
      "byteLength": 2256,
      "byteOffset": 0,
      "name": "floatBufferViews",
      "target": 34963
    },
    {
      "buffer": 0,
      "byteLength": 4992,
      "byteOffset": 2256,
      "byteStride": 12,
      "name": "floatBufferViews",
      "target": 34962
    },
    {
      "buffer": 0,
      "byteLength": 3328,
      "byteOffset": 7248,
      "byteStride": 16,
      "name": "floatBufferViews",
      "target": 34962
    }
  ],
  "buffers": [
    {
      "byteLength": 10576,
      "uri": "scene.bin"
    }
  ],
  "materials": [
    {
      "doubleSided": true,
      "emissiveFactor": [
        0,
        0,
        0
      ],
      "name": "lambert3",
      "pbrMetallicRoughness": {
        "baseColorFactor": [
          0.066905299726652101,
          0.2304300685749,
          0.058298807349449699,
          1
        ],
        "metallicFactor": 0,
        "roughnessFactor": 0.59999999999999998
      }
    }
  ],
  "meshes": [
    {
      "name": "pCylinder2_lambert3_0",
      "primitives": [
        {
          "attributes": {
            "NORMAL": 1,
            "POSITION": 0,
            "TANGENT": 2
          },
          "indices": 3,
          "material": 0,
          "mode": 4
        }
      ]
    }
  ],
  "nodes": [
    {
      "children": [
        1
      ],
      "name": "RootNode (gltf orientation matrix)",
      "rotation": [
        -0.70710678118654746,
        -0,
        -0,
        0.70710678118654757
      ]
    },
    {
      "children": [
        2
      ],
      "name": "RootNode (model correction matrix)"
    },
    {
      "children": [
        3
      ],
      "matrix": [
        1,
        0,
        0,
        0,
        0,
        0,
        1,
        0,
        0,
        -1,
        0,
        0,
        0,
        0,
        0,
        1
      ],
      "name": "7910984d223c4790b8dfe34b0a74419e.fbx"
    },
    {
      "children": [
        4
      ],
      "name": "RootNode"
    },
    {
      "children": [
        5
      ],
      "matrix": [
        0.86111104488372803,
        0,
        0,
        0,
        0,
        6.3347787857055664,
        0,
        0,
        0,
        0,
        1,
        0,
        0.12445309013128281,
        13.529882431030273,
        0.109368696808815,
        1
      ],
      "name": "pCylinder2"
    },
    {
      "mesh": 0,
      "name": "pCylinder2_lambert3_0"
    }
  ],
  "scene": 0,
  "scenes": [
    {
      "name": "OSG_Scene",
      "nodes": [
        0
      ]
    }
  ]
}

